<svg width="1317" height="227" viewBox="0 0 1317 227" fill="none" xmlns="http://www.w3.org/2000/svg">
<path d="M717.21 132.333L716.98 223.423L664.1 223.403V134.143C664.11 119.243 651.54 107.703 636.81 109.283C624.87 110.563 616.33 119.893 615.18 131.903L615.16 223.433L562.2 223.403V64.8628L608.93 64.8228L609.1 77.1928C636.43 55.7228 674.27 53.9028 698.89 80.7828C721.44 61.6428 749.67 55.7528 777.84 65.3528C803 74.7728 818.06 96.0928 818.83 123.153V223.403H766.02L765.99 133.493C765.58 118.913 753.91 107.663 739.23 109.283C727.73 110.553 717.25 119.833 717.22 132.333H717.21Z" fill="black"/>
<path d="M519.63 134.293L556.02 223.353L497.88 223.473L465.09 136.623L464.82 223.413H411.93V5.3128L464.83 5.3028L465.03 134.633L494.12 64.2128L555.06 64.2528L519.63 134.293Z" fill="black"/>
<path d="M227.68 223.423L227.41 213.553C219.43 219.603 210.53 223.983 200.91 225.593C151.54 233.853 106.45 196.693 104.6 147.133C102.74 97.3028 144.35 57.1828 194.29 61.0928C236.43 64.3928 270.32 99.3528 270.41 142.273L270.58 223.393L227.68 223.413V223.423ZM184.11 114.333C167.38 116.313 156.16 131.513 158.02 147.423C159.96 164.003 174.88 175.623 191.35 173.613C207.82 171.603 219.25 156.873 217.35 140.593C215.45 124.313 200.91 112.353 184.11 114.343V114.333Z" fill="black"/>
<path d="M949.84 223.423L949.57 213.563C941.43 219.773 932.74 223.973 922.7 225.663C895.4 230.233 867.87 220.523 849.15 200.663C830.14 180.493 822.61 152.083 828.87 125.033C838.15 84.9628 875.25 57.9928 916.08 61.0628C959.41 64.3228 992.69 100.613 992.67 144.283L992.64 223.423H949.84ZM906.08 114.363C889.25 116.513 877.99 131.963 880.28 148.173C882.57 164.363 897.47 175.733 913.77 173.593C930 171.463 941.66 156.463 939.43 139.983C937.29 124.123 922.76 112.233 906.08 114.363Z" fill="black"/>
<path d="M1273.97 161.423L1316.91 192.893C1296.57 220.023 1263.51 232.233 1230.4 224.493C1200.82 217.583 1176.23 193.713 1169.1 163.143C1160.11 124.573 1179.04 85.3728 1214.54 68.7128C1250.44 51.8628 1293.34 62.6828 1316.87 94.8128L1274 126.223C1265.82 115.223 1251.55 111.193 1238.82 116.293C1226.82 121.093 1218.93 133.483 1220.28 146.983C1221.53 159.603 1230.91 170.593 1244.05 173.233C1255.38 175.513 1266.78 171.133 1273.98 161.423H1273.97Z" fill="black"/>
<path d="M382.22 215.773C351.87 237.013 305.19 224.903 278.22 202.263L300.3 168.363C307.12 173.633 313.9 178.343 321.61 182.033C326.49 184.153 331.29 185.713 336.54 186.043C342.35 186.223 346.74 182.303 347.28 176.613C348.21 166.803 338.16 163.193 330.28 161.433C322.31 159.653 314.82 157.433 307.68 153.503C299.07 148.763 291.78 142.253 287.48 133.293C280.02 117.733 281.84 99.6828 291.6 85.4528C301.36 71.2228 315.59 63.6128 331.88 61.3328C354.99 58.7228 378.4 67.3428 396.29 81.9728L376.05 113.123C369.59 108.993 363.16 105.403 356.22 102.533C352.56 101.343 349 100.423 345.33 100.833C340.96 101.333 338.01 103.983 337.07 107.933C334.87 117.173 347.03 121.193 354.22 123.073C362.59 125.263 370.45 127.983 377.91 132.303C396 142.763 403.71 159.553 402.34 180.203C401.37 194.763 394.14 207.453 382.23 215.783L382.22 215.773Z" fill="black"/>
<path d="M104.49 180.803L85.56 226.813C48.67 223.093 20.25 191.673 20.14 154.523L20.12 106.973L0 106.883V64.2428L20.11 64.1728L20.14 23.8128H73.07L73.1 64.1928L102.63 64.2428V106.903L73.08 106.953L73.11 150.613C74.39 167.383 87.9 179.793 104.49 180.803Z" fill="black"/>
<path d="M1098.71 180.793L1079.75 226.833C1044.38 223.793 1014.66 191.793 1014.54 157.093L1014.37 106.983L994.11 106.873V64.2428L1014.39 64.1928L1014.41 23.8228H1067.18L1067.22 64.2028L1096.81 64.2228V106.903L1067.19 106.943L1067.23 148.023C1067.25 165.873 1081.05 179.733 1098.71 180.783V180.793Z" fill="black"/>
<path d="M1159.19 223.403L1106.38 223.433V64.2128L1159.19 64.2228V223.403Z" fill="black"/>
<path d="M1129.53 61.4128C1113.72 59.6228 1102.28 46.5628 1102 31.3328C1101.72 15.9128 1112.9 2.70282 1128.39 0.35282C1146.73 -2.43718 1163.01 11.6828 1163.57 29.8628C1164.14 48.2028 1148.42 63.5428 1129.52 61.4028L1129.53 61.4128Z" fill="black"/>
</svg>
